<?xml version="1.0" encoding="UTF-8" standalone="no"?>
<!-- Created with Inkscape (http://www.inkscape.org/) -->

<svg
   xmlns:dc="http://purl.org/dc/elements/1.1/"
   xmlns:cc="http://creativecommons.org/ns#"
   xmlns:rdf="http://www.w3.org/1999/02/22-rdf-syntax-ns#"
   xmlns:svg="http://www.w3.org/2000/svg"
   xmlns="http://www.w3.org/2000/svg"
   xmlns:sodipodi="http://sodipodi.sourceforge.net/DTD/sodipodi-0.dtd"
   xmlns:inkscape="http://www.inkscape.org/namespaces/inkscape"
   width="103mm"
   height="43mm"
   viewBox="0 0 103 43"
   version="1.1"
   id="svg8"
   inkscape:version="0.92.3 (2405546, 2018-03-11)"
   sodipodi:docname="drawing.svg">
  <defs
     id="defs2" />
  <sodipodi:namedview
     id="base"
     pagecolor="#ffffff"
     bordercolor="#666666"
     borderopacity="1.0"
     inkscape:pageopacity="0.0"
     inkscape:pageshadow="2"
     inkscape:zoom="1.4"
     inkscape:cx="270.90014"
     inkscape:cy="104.20329"
     inkscape:document-units="mm"
     inkscape:current-layer="svg8"
     showgrid="false"
     inkscape:window-width="2672"
     inkscape:window-height="1371"
     inkscape:window-x="0"
     inkscape:window-y="55"
     inkscape:window-maximized="1" />
  <metadata
     id="metadata5">
    <rdf:RDF>
      <cc:Work
         rdf:about="">
        <dc:format>image/svg+xml</dc:format>
        <dc:type
           rdf:resource="http://purl.org/dc/dcmitype/StillImage" />
        <dc:title></dc:title>
      </cc:Work>
    </rdf:RDF>
  </metadata>
  <path
     style="fill:#000000;stroke-width:0.35277778"
     d="m 73.817737,31.65634 -8.20309,-11.40091 3.01257,-9.63032 c 1.65692,-5.29668 3.05622,-9.67397 3.10955,-9.7273 0.0533,-0.0533 1.02574,3.74926 2.1609,8.45022 1.13515,4.70096 2.14535,8.69605 2.24487,8.87799 0.0995,0.18194 0.37729,-0.63173 0.61726,-1.80815 1.0329,-5.06371 4.09587,-8.85983 8.33673,-10.33224 3.11621,-1.08193 8.82943,-1.3572 11.91737,-0.57421 2.59701,0.65852 3.708273,1.35304 4.850693,3.03161 1.48114,2.17624 0.94021,7.52314 -1.18584,11.72165 -1.672453,3.30276 -4.731813,5.47059 -8.869093,6.28455 -1.92111,0.37795 -2.14212,0.50402 -1.84777,1.05401 0.49607,0.92692 2.25209,1.40449 5.16437,1.40449 2.05505,0 2.59319,0.10841 2.59319,0.52245 0,0.80397 -1.37637,0.98171 -6.45353,0.83335 -5.2178,-0.15249 -6.51487,-0.59661 -7.83397,-2.68242 -0.38805,-0.61361 -0.961,-1.12177 -1.2732,-1.12924 -0.31221,-0.007 -1.45955,-0.46347 -2.54966,-1.01333 -1.88909,-0.95288 -1.97371,-0.96529 -1.8051,-0.26459 0.0973,0.40434 1.11211,4.54516 2.25514,9.20184 1.14302,4.65666 2.05201,8.49249 2.01997,8.52406 -0.032,0.0316 -3.74965,-5.07301 -8.26136,-11.34351 z m 18.42374,-7.38665 c 2.96344,-1.73669 5.03538,-6.25332 5.35166,-11.66613 0.18868,-3.22881 -0.16016,-4.19879 -1.8689,-5.19675 -2.8349,-1.65567 -7.47073,-0.96303 -10.16279,1.51842 -3.15039,2.90392 -5.15598,10.96148 -3.51721,14.13051 1.32885,2.56973 6.77705,3.21831 10.19724,1.21395 z M 0.01269,42.69002 c -0.0187,-0.37202 2.47013,-4.82948 2.81583,-5.04313 0.37546,-0.23205 0.5952,0.5334 0.90156,3.14049 0.17748,1.51031 0.135,2.01076 -0.15543,1.83126 C 3.35484,42.48279 3.175,42.06351 3.175,41.68691 c 0,-1.03452 -1.41498,-0.86307 -2.35531,0.2854 -0.43687,0.53358 -0.80002,0.85655 -0.807,0.71771 z M 3.03636,40.09137 C 2.91858,39.78446 2.8166,39.26854 2.80972,38.94484 2.80072,38.52453 2.65314,38.60839 2.29306,39.23829 1.60809,40.43651 1.64039,40.6494 2.50719,40.6494 c 0.53285,0 0.68267,-0.158 0.52917,-0.55803 z m 1.89892,1.96239 c -0.56788,-1.0611 0.27797,-2.63908 1.41464,-2.63908 0.55034,0 0.91625,0.22788 0.99126,0.61736 0.0929,0.48234 -0.12386,0.61736 -0.99118,0.61736 -0.86116,0 -1.08379,0.13644 -0.99288,0.60849 0.0645,0.33468 0.51266,0.8086 0.99601,1.05314 l 0.87882,0.44463 -0.95773,0.005 C 5.67085,42.76366 5.17545,42.50231 4.93528,42.05357 Z M 6.87917,39.94384 C 6.75925,39.74981 6.43238,39.59106 6.15279,39.59106 c -0.27959,0 -0.50834,0.15875 -0.50834,0.35278 0,0.19402 0.32687,0.35277 0.72637,0.35277 0.39951,0 0.62826,-0.15875 0.50835,-0.35277 z m 1.24401,2.46945 c -8.47e-4,-0.29105 0.0936,-1.10463 0.20998,-1.80798 0.18089,-1.09365 0.34635,-1.27876 1.14265,-1.27839 l 0.93114,2.6e-4 -0.79375,0.52766 c -0.43657,0.29021 -0.79618,0.86548 -0.79916,1.27838 -0.003,0.41298 -0.15929,0.98893 -0.34737,1.27997 -0.30398,0.47037 -0.34214,0.47037 -0.34349,0 z m 2.53071,-0.0706 c -1.03921,-1.03921 0.13312,-3.21071 1.63925,-3.03639 1.15044,0.13314 1.4293,1.33605 0.60233,2.59817 -0.60925,0.92983 -1.56343,1.11637 -2.24158,0.43822 z m 1.62278,-0.35278 C 12.5095,41.75707 12.7,41.12207 12.7,40.57879 c 0,-1.3192 -1.29311,-1.40438 -1.61882,-0.10663 -0.39129,1.55904 0.28967,2.42356 1.19549,1.51774 z m 1.8622,0.42333 c -0.011,-0.29104 0.0743,-1.09938 0.18962,-1.79631 0.1906,-1.15217 0.3183,-1.27124 1.40723,-1.31218 1.12772,-0.0424 1.19617,0.0213 1.17282,1.09076 -0.0136,0.62468 -0.17041,1.45329 -0.34838,1.84134 -0.24475,0.53368 -0.30316,0.32664 -0.23978,-0.84985 0.0938,-1.74214 -0.58507,-2.37365 -1.10727,-1.02994 -0.79976,2.05795 -1.05566,2.54777 -1.07424,2.05618 z m 3.85439,-0.34981 c -0.63898,-1.19394 0.26577,-2.64042 1.67886,-2.68408 1.21604,-0.0376 1.27231,0.10541 0.83545,2.12257 -0.28699,1.32514 -1.91147,1.68793 -2.51431,0.56151 z m 1.81624,-0.50964 c 0.41943,-0.92055 0.20533,-1.96277 -0.40321,-1.96277 -0.52644,0 -1.19573,1.61169 -0.9429,2.27056 0.31016,0.80826 0.89894,0.67363 1.34611,-0.30779 z m 1.91106,0.89945 c -0.26421,-0.42749 0.19839,-2.84946 0.59054,-3.09182 0.21585,-0.1334 0.25453,0.31581 0.10395,1.20708 -0.14151,0.83758 -0.0949,1.50913 0.1137,1.63805 0.47612,0.29426 1.46014,-1.16468 1.46014,-2.16486 0,-0.4419 0.17137,-0.80345 0.38081,-0.80345 0.34647,0 0.26114,1.05942 -0.22734,2.82222 -0.15484,0.55881 -2.12201,0.87786 -2.4218,0.39278 z m 4.13212,-1.37757 c 0.13781,-1.71911 0.925061,-3.75826 0.947709,-2.45479 0.006,0.33955 0.199822,0.61736 0.430932,0.61736 0.25282,0 0.19884,0.17566 -0.135511,0.44097 -0.82175,0.65209 -1.02125,2.32575 -0.325671,2.7322 0.47634,0.27834 0.436621,0.33492 -0.241419,0.34388 -0.75397,0.01 -0.80194,-0.1092 -0.67604,-1.67962 z m 2.222411,0.36743 c 0.34372,-1.9137 0.949899,-2.74994 0.703239,-0.97014 -0.107559,0.77611 -0.197311,1.60955 -0.199441,1.85209 -0.0021,0.24253 -0.169828,0.44097 -0.372649,0.44097 -0.23318,0 -0.281401,-0.48639 -0.131149,-1.32292 z m 1.981578,0.89959 c -0.970589,-0.97059 -0.176178,-3.10445 1.155761,-3.10445 0.886989,0 1.50096,0.57892 1.053769,0.99361 -0.14301,0.13261 -0.33088,0.0427 -0.417499,-0.19986 -0.271211,-0.75939 -1.13347,-0.48128 -1.364739,0.44018 -0.30225,1.20427 0.01101,1.85701 0.979889,2.04205 0.778981,0.14877 0.77523,0.15786 -0.0843,0.20376 -0.494771,0.0264 -1.090092,-0.14246 -1.322922,-0.37529 z m 2.9879,0.18919 c -0.354568,-0.35456 -0.2843,-1.8391 0.123082,-2.60029 0.471659,-0.8813 2.91566,-0.89834 2.671199,-0.0186 -0.0856,0.30799 -0.25213,1.04256 -0.370089,1.63237 -0.17227,0.86137 -0.408641,1.08718 -1.201221,1.14758 -0.542709,0.0414 -1.09305,-0.0311 -1.222971,-0.16105 z m 1.666301,-0.67666 c 0.117779,-0.30691 0.21413,-0.95355 0.21413,-1.43698 0,-0.64649 -0.16328,-0.84801 -0.61736,-0.76196 -0.809138,0.15334 -1.114759,2.75696 -0.32362,2.75696 0.28199,0 0.609081,-0.25111 0.72685,-0.55802 z m 4.16524,0.48747 c -1.05895,-1.05896 -0.0803,-3.2531 1.360332,-3.04976 1.191498,0.16819 1.1093,1.1516 -0.107961,1.29166 -1.220851,0.14047 -1.338281,1.35063 -0.17639,1.81766 0.748829,0.30099 0.752819,0.32031 0.0705,0.34141 -0.397748,0.0123 -0.913688,-0.16814 -1.146529,-0.40097 z m 1.693341,-2.39889 c 0,-0.19403 -0.228761,-0.35278 -0.508351,-0.35278 -0.279588,0 -0.60646,0.15875 -0.726369,0.35278 -0.11992,0.19402 0.108828,0.35277 0.508339,0.35277 0.39951,0 0.726381,-0.15875 0.726381,-0.35277 z m 1.23303,1.67569 c 0.444439,-2.20824 0.496078,-2.27693 1.684356,-2.24014 1.10801,0.0343 1.13647,0.0743 1.02799,1.44639 -0.0614,0.77611 -0.26132,1.56345 -0.44435,1.74964 -0.20885,0.21243 -0.24798,-0.2803 -0.10508,-1.32292 0.15001,-1.09442 0.0978,-1.66144 -0.153,-1.66144 -0.57037,0 -1.479056,1.457 -1.479056,2.37155 0,0.4419 -0.17136,0.80345 -0.380809,0.80345 -0.241782,0 -0.296561,-0.41859 -0.150051,-1.14653 z m 6.245856,0.7232 c -0.67917,-0.67917 -0.50519,-2.90523 0.30782,-3.93882 1.8468,-2.34781 4.10573,0.22769 2.6489,3.02012 -0.36449,0.69863 -0.38731,0.99551 -0.086,1.11867 0.22557,0.0922 -0.23281,0.18019 -1.01862,0.19551 -0.78581,0.0153 -1.61925,-0.16265 -1.85208,-0.39548 z m 2.03463,-0.44478 c 0.75621,-0.91119 0.86714,-3.15426 0.18402,-3.7212 -0.53604,-0.44486 -0.68316,-0.40803 -1.27131,0.31831 -0.64538,0.797 -0.92454,3.18843 -0.42993,3.68304 0.39034,0.39034 1.06399,0.26596 1.51722,-0.28015 z m 2.0891,0.43274 c -0.0841,-0.96219 0.12447,-2.23558 0.44881,-2.73963 0.23455,-0.3645 0.27842,-0.0693 0.14099,0.94884 -0.10973,0.81291 -0.0532,1.56843 0.12559,1.67894 0.50642,0.31298 1.44032,-0.82187 1.44032,-1.75021 0,-0.45977 0.1761,-0.94476 0.39133,-1.07779 0.27779,-0.17168 0.31716,0.2061 0.1357,1.3021 -0.32532,1.96483 -0.27801,1.90407 -1.55854,2.00164 -0.66837,0.0509 -1.10015,-0.0888 -1.1242,-0.36389 z m 3.99016,0.012 c -0.55633,-0.55633 -0.53871,-1.75348 0.0374,-2.54136 0.57481,-0.7861 2.13158,-0.62968 2.29556,0.23066 0.0914,0.47957 -0.12433,0.61736 -0.96654,0.61736 -0.85475,0 -1.0842,0.15173 -1.0842,0.71692 0,0.41376 0.33565,0.85185 0.79375,1.03598 0.74883,0.30099 0.75283,0.32031 0.0706,0.34141 -0.39775,0.0123 -0.91369,-0.16814 -1.14652,-0.40097 z m 1.69333,-2.39889 c 0,-0.19403 -0.22875,-0.35278 -0.50835,-0.35278 -0.27959,0 -0.60646,0.15875 -0.72637,0.35278 -0.11992,0.19402 0.10884,0.35277 0.50834,0.35277 0.39951,0 0.72638,-0.15875 0.72638,-0.35277 z m 1.18461,2.20486 c 0.0956,-0.33955 0.27767,-1.1333 0.40458,-1.76389 0.19173,-0.95262 0.39009,-1.1452 1.17287,-1.13868 l 0.94211,0.008 -0.7868,0.60952 c -0.43273,0.33523 -0.88914,1.12545 -1.01423,1.75604 -0.1251,0.63059 -0.37705,1.14653 -0.5599,1.14653 -0.18285,0 -0.25423,-0.27781 -0.15863,-0.61736 z m 2.7665,0.19403 c -0.55632,-0.55633 -0.5387,-1.75348 0.0374,-2.54136 0.57481,-0.7861 2.13158,-0.62968 2.29555,0.23066 0.0914,0.47957 -0.12432,0.61736 -0.96654,0.61736 -0.85474,0 -1.0842,0.15173 -1.0842,0.71692 0,0.41376 0.33566,0.85185 0.79375,1.03598 0.74884,0.30099 0.75283,0.32031 0.0706,0.34141 -0.39776,0.0123 -0.91369,-0.16814 -1.14653,-0.40097 z m 1.69334,-2.39889 c 0,-0.19403 -0.23813,-0.35278 -0.52917,-0.35278 -0.29104,0 -0.52917,0.15875 -0.52917,0.35278 0,0.19402 0.23813,0.35277 0.52917,0.35277 0.29104,0 0.52917,-0.15875 0.52917,-0.35277 z m 1.85106,1.23472 c 0.0984,-0.87313 0.0412,-1.5875 -0.12706,-1.5875 -0.16829,0 -0.031,-0.3212 0.30518,-0.71379 0.42636,-0.49796 0.65465,-0.57796 0.755,-0.26458 0.0791,0.24706 0.31846,0.56583 0.53191,0.70838 0.24433,0.16319 0.17395,0.26119 -0.19003,0.26459 -0.76916,0.007 -1.27279,2.44341 -0.59408,2.87374 0.34725,0.22017 0.29695,0.29724 -0.19661,0.30126 -0.57791,0.005 -0.64022,-0.19886 -0.48431,-1.5821 z m 2.24011,1.32775 c -0.39039,-0.39039 -0.21452,-2.47284 0.24074,-2.85067 0.24824,-0.20603 0.93515,-0.36084 1.52647,-0.34403 l 1.07511,0.0306 -0.32808,1.65929 c -0.29526,1.49328 -0.42691,1.66209 -1.31586,1.68737 -0.54327,0.0154 -1.08254,-0.0667 -1.19838,-0.18254 z m 1.48271,-0.51636 c 0.62632,-0.62632 0.54167,-2.39889 -0.11456,-2.39889 -0.63116,0 -1.29687,1.52148 -1.00196,2.28999 0.24657,0.64255 0.55299,0.67244 1.11652,0.1089 z m 1.96073,0.15875 c 0.0956,-0.33955 0.27766,-1.1333 0.40458,-1.76389 0.19173,-0.95262 0.39009,-1.1452 1.17287,-1.13868 l 0.9421,0.008 -0.78679,0.60952 c -0.43274,0.33523 -0.88915,1.12545 -1.01424,1.75604 -0.12509,0.63059 -0.37704,1.14653 -0.55989,1.14653 -0.18285,0 -0.25424,-0.27781 -0.15863,-0.61736 z m 2.57835,0.38217 c -0.43417,-0.43416 -0.24052,-2.49621 0.27456,-2.9237 0.28036,-0.23267 0.87568,-0.37117 1.32292,-0.30777 0.63363,0.0898 0.83795,0.37349 0.92543,1.28484 0.0618,0.64327 -0.0768,1.39733 -0.30778,1.6757 -0.43244,0.52106 -1.79799,0.68808 -2.21513,0.27093 z m 1.93542,-0.97704 c 0.48668,-1.06814 0.147,-2.0532 -0.65477,-1.8988 -0.62083,0.11957 -1.16449,1.53547 -0.88975,2.31728 0.2573,0.73221 1.12768,0.49639 1.54452,-0.41848 z M 19.75556,38.22152 c 0,-0.19402 0.15875,-0.45088 0.35278,-0.5708 0.19402,-0.11992 0.35277,-0.0593 0.35277,0.13475 0,0.19402 -0.15875,0.45088 -0.35277,0.5708 -0.19403,0.11991 -0.35278,0.0593 -0.35278,-0.13475 z m 43.391667,0 c 0,-0.19402 0.15875,-0.45088 0.35278,-0.5708 0.19402,-0.11992 0.35277,-0.0593 0.35277,0.13475 0,0.19402 -0.15875,0.45088 -0.35277,0.5708 -0.19403,0.11991 -0.35278,0.0593 -0.35278,-0.13475 z M 28.75139,37.82709 c 0.11992,-0.19403 0.288041,-0.35278 0.373599,-0.35278 0.0856,0 0.15557,0.15875 0.15557,0.35278 0,0.19402 -0.168119,0.35277 -0.3736,0.35277 -0.205478,0 -0.275478,-0.15875 -0.155569,-0.35277 z M 0.36733,34.49322 c -0.50547,-0.60905 0.1446,-4.42725 0.75376,-4.42725 0.20103,0 0.28192,0.21783 0.17976,0.48407 -0.10217,0.26624 -0.29565,1.2169 -0.42997,2.1126 -0.19892,1.32648 -0.13792,1.66932 0.32889,1.84845 0.92878,0.35641 1.50615,-0.43997 1.94829,-2.68733 0.22837,-1.16081 0.50706,-2.11056 0.61931,-2.11056 0.37866,0 -0.27728,3.69725 -0.79798,4.49791 -0.58782,0.90386 -1.96238,1.0529 -2.60206,0.28211 z M 4.35961,34.3875 C 4.45521,34.04795 4.63169,33.27966 4.75177,32.68019 4.94449,31.7181 5.11836,31.58465 6.2339,31.54273 l 1.26381,-0.0475 -0.21719,1.31385 c -0.11946,0.72261 -0.21894,1.51228 -0.22108,1.75483 -0.002,0.24253 -0.14313,0.44097 -0.31333,0.44097 -0.17019,0 -0.22892,-0.71438 -0.13051,-1.5875 0.26552,-2.35564 -1.05771,-1.94847 -1.54232,0.47458 -0.12242,0.6121 -0.37219,1.11292 -0.55504,1.11292 -0.18285,0 -0.25423,-0.27781 -0.15863,-0.61736 z m 3.95992,-0.70555 c 0.34372,-1.91371 0.9499,-2.74995 0.70324,-0.97014 -0.10756,0.7761 -0.19731,1.60954 -0.19944,1.85208 -0.002,0.24253 -0.16983,0.44097 -0.37265,0.44097 -0.23318,0 -0.2814,-0.48639 -0.13115,-1.32291 z m 2.10101,-0.29691 c -0.27063,-1.80467 0.002,-2.56136 0.35287,-0.97944 0.12343,0.55646 0.25959,1.15893 0.30258,1.33881 0.043,0.17986 0.44408,-0.26505 0.89132,-0.9887 0.44725,-0.72366 0.87676,-1.25216 0.95447,-1.17443 0.20923,0.20921 -1.6458,3.42358 -1.97577,3.42358 -0.15541,0 -0.39187,-0.72893 -0.52547,-1.61982 z m 3.01954,0.82607 c -0.54147,-1.45433 0.62251,-3.09887 1.8578,-2.62486 1.03196,0.396 0.67911,1.30195 -0.50708,1.30195 -0.83666,0 -1.05744,0.13893 -0.96701,0.60849 0.0645,0.33468 0.51265,0.8086 0.996,1.05313 l 0.87882,0.44464 -0.9815,0.005 c -0.69786,0.004 -1.06691,-0.22419 -1.27703,-0.78855 z m 1.90576,-2.02847 c -0.11992,-0.19403 -0.44679,-0.35278 -0.72638,-0.35278 -0.27959,0 -0.50835,0.15875 -0.50835,0.35278 0,0.19402 0.32687,0.35277 0.72638,0.35277 0.39951,0 0.62826,-0.15875 0.50835,-0.35277 z m 1.2386,2.38125 c 0.002,-0.24254 0.0991,-1.01645 0.21539,-1.7198 0.17434,-1.05408 0.35964,-1.27882 1.05445,-1.27882 0.46362,0 0.84294,0.13891 0.84294,0.3087 0,0.16977 -0.232,0.30867 -0.51556,0.30867 -0.30299,0 -0.67225,0.58184 -0.89555,1.41111 -0.37187,1.38102 -0.7094,1.8477 -0.70167,0.97014 z m 2.11278,0.14465 c 0,-0.18875 0.29959,-0.26484 0.66575,-0.16909 1.01904,0.2665 1.24933,-0.53379 0.36067,-1.25338 -1.04662,-0.8475 -0.69196,-1.82607 0.63821,-1.76094 0.83191,0.0407 0.86043,0.0713 0.18746,0.20093 -0.92986,0.17909 -1.00707,0.54592 -0.24756,1.17626 0.86739,0.71987 0.49766,1.90753 -0.63439,2.03779 -0.53357,0.0614 -0.97014,-0.0428 -0.97014,-0.23157 z m 3.18961,-0.0565 c -0.0155,-1.20089 0.45272,-3.175 0.75309,-3.175 0.35491,0 0.0253,2.32869 -0.44943,3.175 -0.26383,0.47037 -0.29757,0.47037 -0.30366,0 z m 1.98447,0.11759 c -0.40359,-0.40359 -0.25757,-2.06879 0.24123,-2.75094 0.3056,-0.41793 0.73822,-0.58307 1.20661,-0.46058 0.56276,0.14716 0.78103,-0.0116 0.95187,-0.69224 0.45841,-1.82647 0.608299,-0.38519 0.190321,1.83003 -0.489201,2.59268 -1.167511,3.18208 -0.830241,0.72142 0.18251,-1.33154 0.12313,-1.5875 -0.36826,-1.5875 -0.32221,0 -0.74067,0.40721 -0.92989,0.90491 -0.43452,1.14287 -0.44458,1.06083 0.21032,1.71572 0.44816,0.44816 0.45942,0.55437 0.0588,0.55437 -0.27256,0 -0.6014,-0.10584 -0.73075,-0.23519 z m 3.52882,10e-4 c -0.358298,-0.35831 -0.283501,-1.39281 0.173181,-2.39511 0.322508,-0.70783 0.66539,-0.89854 1.61553,-0.89854 1.1729,0 1.199769,0.0316 0.97537,1.14653 -0.417412,2.07392 -0.52115,2.23043 -1.52931,2.30725 -0.549201,0.0419 -1.104842,-0.0302 -1.234771,-0.16014 z m 1.903572,-1.06142 c 0.418139,-1.09981 0.209277,-1.87945 -0.503481,-1.87945 -0.578991,0 -0.93076,0.74422 -0.93076,1.96913 0,1.1668 0.979819,1.10553 1.434241,-0.0897 z m 1.951368,1.03581 c -0.421439,-0.42145 -0.1969,-2.48746 0.31668,-2.91369 0.290001,-0.24068 0.836789,-0.35667 1.215069,-0.25775 0.537732,0.14062 0.737881,-0.0482 0.91739,-0.86553 0.454052,-2.06727 0.577893,-0.63416 0.151421,1.75223 -0.413559,2.31413 -0.486341,2.44123 -1.412981,2.46758 -0.537329,0.0153 -1.071739,-0.067 -1.187579,-0.18284 z m 1.48272,-0.51637 c 0.23283,-0.23284 0.42333,-0.86784 0.42333,-1.41111 0,-1.28936 -0.949798,-1.31916 -1.43424,-0.045 -0.57346,1.50832 0.0544,2.41265 1.01091,1.45611 z M 40.922231,32.325 c 0,-0.12292 1.21815,-1.47526 2.706996,-3.0052 l 2.70702,-2.78171 -1.91327,-0.0123 -1.913246,-0.0123 -5.291672,-8.80473 C 34.30764,12.86606 31.84702,8.90444 31.75,8.90506 c -0.097,6.1e-4 -1.13198,3.92859 -2.29992,8.72883 l -2.12354,8.72771 -1.52312,0.10998 c -1.33227,0.0962 -1.49858,0.0299 -1.32725,-0.52917 0.21095,-0.68833 4.45161,-18.11776 4.45161,-18.29646 0,-0.42979 -1.262161,-1.21629 -1.951879,-1.21629 -0.949771,0 -0.705621,-0.68927 -2.985161,8.42759 -1.58215,6.3277 -2.01472,7.41223 -3.63915,9.12396 -1.72525,1.81795 -4.34227,2.63275 -9.07496,2.82543 C 5.7892,27.03006 3.43881,26.53202 1.67995,24.77317 -0.08358,23.00964 -0.06025,22.17839 1.98173,14.0175 2.87765,10.43689 3.51914,7.26875 3.40725,6.97719 3.29537,6.68563 2.48297,6.26556 1.60192,6.04371 0.72086,5.82186 0,5.50044 0,5.32944 0,5.15845 2.06375,5.01855 4.58611,5.01855 c 2.67582,0 4.58611,0.14023 4.58611,0.33665 0,0.18517 -0.79375,3.54185 -1.76389,7.45931 -2.01887,8.15228 -2.18194,10.1625 -0.92623,11.4182 1.54674,1.54675 7.07995,1.64445 9.70106,0.1713 2.1523,-1.20966 2.69141,-2.43792 4.83117,-11.00699 l 2.00407,-8.0257 5.865109,0.002 5.865101,0.002 5.0991,8.46287 c 2.804499,4.65457 5.203747,8.34445 5.331667,8.19973 0.12792,-0.14475 1.14647,-3.9541 2.26345,-8.46524 l 2.03086,-8.20209 h 1.36871 c 0.75279,0 1.36872,0.15276 1.36872,0.33946 0,0.1867 -1.03496,4.50341 -2.2999,9.59268 -1.26494,5.08928 -2.25713,9.37 -2.20486,9.51272 0.0523,0.14271 5.33378,-5.18701 11.7367,-11.84384 6.40292,-6.65684 11.68948,-12.06116 11.74791,-12.0096 0.0584,0.0516 -1.54465,4.41543 -3.56241,9.6975 l -3.66866,9.60375 -7.72648,4.12284 c -4.24956,2.26756 -9.43303,5.03154 -11.51883,6.14219 -2.085796,1.11065 -3.792356,1.91879 -3.792356,1.79586 z M 8.99584,30.06596 c 0.11991,-0.19402 0.28803,-0.35277 0.37359,-0.35277 0.0856,0 0.15557,0.15875 0.15557,0.35277 0,0.19403 -0.16812,0.35278 -0.3736,0.35278 -0.20547,0 -0.27548,-0.15875 -0.15556,-0.35278 z m 90.134717,-1.05833 c 0,-0.38805 0.15875,-0.70555 0.35278,-0.70555 0.19403,0 0.35278,0.3175 0.35278,0.70555 0,0.38806 -0.15875,0.70556 -0.35278,0.70556 -0.19403,0 -0.35278,-0.3175 -0.35278,-0.70556 z"
     id="path91"
     inkscape:connector-curvature="0" />
</svg>
